<?xml version="1.0" encoding="utf-8"?>
<!-- Generator: Adobe Illustrator 26.0.1, SVG Export Plug-In . SVG Version: 6.00 Build 0)  -->
<svg version="1.1" id="Слой_1" xmlns="http://www.w3.org/2000/svg" xmlns:xlink="http://www.w3.org/1999/xlink" x="0px" y="0px"
	 viewBox="0 0 595.28 841.89" style="enable-background:new 0 0 595.28 841.89;" xml:space="preserve">
<style type="text/css">
	.st0{fill:#9DCB85;}
	.st1{fill:#FFEA2F;}
	.st2{fill:#D3B5C9;}
	.st3{fill:#51C2EC;}
	.st4{fill:none;stroke:#000000;stroke-miterlimit:10;}
	.st5{fill:#E71D73;}
	.st6{font-family:'BrushScriptStd';}
	.st7{font-size:24px;}
</style>
<g>
	<path class="st0" d="M290.69,414.28c3.29-11.42-1.33-22.53-4.32-33.44c-3.23-11.79-2.32-24.33-6-35.99
		c-1.73-5.5-4.82-10.55-9.49-14.02"/>
	<g>
		<path d="M293.1,414.95c1.7-6.08,1.4-12.34,0.15-18.46c-1.22-5.99-3.36-11.73-4.82-17.65c-2.89-11.69-1.98-24.12-5.96-35.57
			c-2.02-5.81-5.41-10.86-10.33-14.59c-1.08-0.82-2.8-0.17-3.42,0.9c-0.75,1.28-0.18,2.6,0.9,3.42c8.47,6.42,10.12,17.89,11.2,27.74
			c0.63,5.74,1.1,11.52,2.28,17.18c1.2,5.75,3.26,11.28,4.67,16.98c1.53,6.18,2.25,12.52,0.51,18.73
			C287.41,416.72,292.23,418.05,293.1,414.95L293.1,414.95z"/>
	</g>
</g>
<g>
	<path class="st0" d="M270.88,330.83C266,324,259,318,251,315c-12-4-24,2-36,4c-13-6-26,2-33,13c-15,24-27,54-16.33,81.01"/>
	<g>
		<path d="M273.04,329.57c-4.67-6.48-10.74-12.11-18.01-15.56c-4.02-1.9-8.25-2.86-12.7-2.86c-4.5,0-8.98,0.88-13.33,1.94
			c-4.88,1.19-9.71,2.64-14.67,3.49c0.64,0.08,1.28,0.17,1.93,0.25c-7.64-3.45-15.94-2.94-23.25,1.13
			c-7.29,4.06-12,10.61-16.13,17.66c-8.85,15.11-16.04,31.82-17.53,49.43c-0.82,9.68,0.36,19.54,3.9,28.61
			c0.49,1.26,1.68,2.13,3.08,1.75c1.2-0.33,2.24-1.81,1.75-3.08c-9.02-23.11-1.12-48.17,10.17-68.97
			c5.11-9.42,10.94-19.78,21.92-23.07c2.45-0.73,4.94-1,7.49-0.78c1.24,0.11,2.46,0.38,3.65,0.74c0.64,0.19,1.27,0.41,1.89,0.66
			c1.06,0.44,1.73,0.61,2.91,0.41c6.46-1.08,12.67-3.29,19.11-4.48c3.43-0.63,6.97-0.94,10.45-0.52c3.29,0.4,6.3,1.59,9.17,3.2
			c5.48,3.07,10.22,7.47,13.89,12.56c0.79,1.09,2.18,1.62,3.42,0.9C273.22,332.36,273.83,330.67,273.04,329.57L273.04,329.57z"/>
	</g>
</g>
<g>
	<path class="st1" d="M422.52,409.01C433,378,438,344,423,313c-4-7-13-9-20-11c-17-4-33-7-49.86-6.65"/>
	<g>
		<path d="M424.93,409.67c7.41-22,12.13-45.51,8.98-68.75c-0.77-5.69-2-11.31-3.76-16.78c-0.94-2.93-2.05-5.81-3.27-8.64
			c-1.08-2.51-2.17-4.86-4.03-6.89c-3.2-3.49-7.69-5.49-12.11-6.95c-5-1.66-10.13-2.82-15.27-3.93
			c-13.91-3.01-28.07-5.15-42.34-4.88c-3.21,0.06-3.22,5.06,0,5c12.04-0.23,23.98,1.27,35.77,3.61c5.56,1.1,11.12,2.28,16.57,3.83
			c4.06,1.15,8.23,2.4,11.69,4.91c3.97,2.89,5.54,7.85,7.14,12.29c1.91,5.29,3.32,10.75,4.26,16.29c1.83,10.86,1.7,22.01,0.36,32.92
			c-1.54,12.48-4.8,24.74-8.81,36.64C419.08,411.4,423.91,412.71,424.93,409.67L424.93,409.67z"/>
	</g>
</g>
<g>
	<path class="st1" d="M425.13,317.84C420,313,414,309,408,306c-25-10-55-18-81-4c-14,7-26,16-35,30c-1,2-2,5-3,7c-4,9-4,19-2,29
		c4,17,10,33,21.09,46.39"/>
	<g>
		<path d="M426.9,316.07c-6.17-5.78-13.37-10.62-21.27-13.68c-7.43-2.87-15-5.41-22.75-7.27c-15.56-3.74-32.25-4.78-47.59,0.53
			c-7.33,2.54-14.4,6.4-20.88,10.64c-6.22,4.07-12,8.85-16.95,14.4c-2.61,2.93-5.01,6.06-7.17,9.34c-1.08,1.64-1.71,3.57-2.45,5.39
			c-0.73,1.82-1.61,3.58-2.27,5.43c-2.97,8.32-2.84,17.37-1.34,25.97c1.38,7.92,3.97,15.85,6.94,23.3
			c2.98,7.46,6.66,14.64,11.37,21.16c1.2,1.67,2.46,3.29,3.77,4.87c0.86,1.04,2.65,0.89,3.54,0c1.03-1.03,0.86-2.49,0-3.54
			c-9.7-11.77-15.49-26.08-19.31-40.72c-2.03-7.76-3.2-15.92-1.71-23.9c0.75-3.99,2.33-7.52,3.84-11.25
			c0.67-1.65,1.29-3.23,2.29-4.72c0.98-1.47,2-2.91,3.09-4.29c8.82-11.23,20.86-19.45,33.76-25.36c13.93-6.37,29.77-6.48,44.57-3.57
			c7.52,1.48,14.88,3.67,22.1,6.24c3.43,1.22,6.96,2.38,10.17,4.1c3.55,1.9,6.99,4.08,10.17,6.56c1.57,1.23,3.08,2.54,4.54,3.9
			C425.71,321.8,429.25,318.27,426.9,316.07L426.9,316.07z"/>
	</g>
</g>
<g>
	<path class="st2" d="M342.34,230.18c-13.1-22.54-35.42-39.54-60.64-46.19c-21.33-5.62-47.44-2.29-60.08,15.79
		c-5.4,7.73-7.68,17.23-8.61,26.61c-2.48,25.23,4.9,52,22.67,70.08c11.5,11.69,27.58,19.48,43.95,18.63
		c11.34-0.59,22.05-5.15,32.41-9.79c7.66-3.43,15.56-7.14,20.87-13.63c4.31-5.26,6.53-11.91,8.24-18.49
		c3.79-14.57,5.51-29.67,5.1-44.72"/>
	<g>
		<path d="M344.49,228.92c-6.9-11.82-16.21-22.08-27.13-30.3c-10.72-8.07-23.14-14.13-36.17-17.34
			c-12.06-2.97-25.15-3.27-37.13,0.25c-12.31,3.62-22.89,11.64-28.26,23.48c-3.17,7-4.67,14.55-5.35,22.17
			c-0.62,6.83-0.51,13.73,0.32,20.53c1.68,13.84,6.17,27.41,13.9,39.07c7.95,11.98,19.14,21.67,32.57,26.99
			c6.58,2.6,13.7,4.02,20.79,3.89c8.06-0.14,15.93-2.29,23.42-5.16c7.14-2.74,14.36-5.78,21.07-9.47
			c6.47-3.56,12.15-8.28,15.75-14.82c3.76-6.84,5.61-14.71,7.17-22.31c1.71-8.29,2.78-16.73,3.2-25.19
			c0.2-4.08,0.24-8.16,0.14-12.25c-0.08-3.21-5.08-3.22-5,0c0.41,15.86-1.42,31.89-5.86,47.14c-1.95,6.71-4.79,13.06-10.11,17.78
			c-5.02,4.46-11.36,7.24-17.43,9.95c-7.02,3.14-14.15,6.17-21.66,7.92c-6.79,1.59-13.8,1.87-20.66,0.5
			c-13.25-2.66-25.03-10.37-33.79-20.53c-8.5-9.86-14.06-22.01-16.93-34.64c-2.92-12.87-3.27-26.83-0.27-39.72
			c1.53-6.56,4.13-13,8.54-18.16c3.63-4.26,8.17-7.54,13.23-9.91c10.27-4.81,22.34-5.68,33.45-4.15
			c12.37,1.69,24.35,6.52,34.93,13.07c10.81,6.69,20.39,15.5,27.83,25.82c1.84,2.55,3.55,5.19,5.14,7.91
			C341.8,234.22,346.12,231.7,344.49,228.92L344.49,228.92z"/>
	</g>
</g>
<g id="XMLID_00000164513330174147304660000012774194855536293273_">
	<g>
		<path class="st3" d="M506.47,415.02c4.29,6.95,3.3,15.82,1.94,23.87c-4.74,27.91-12.32,55.34-22.59,81.72
			c-2.54,6.53-5.39,13.2-10.45,18.05c-5.64,5.4-13.42,7.95-21.09,9.37c-14.05,2.6-28.47,1.99-42.73,1.18
			c-25.72-1.47-51.35-7.08-77.07-5.63c-62.02,3.47-131.44,4.45-192.48-7.58c-21.27-4.19-41.13,2.89-39.36-45.45
			c0.74-20.09-4.5-39.47,3.06-58.09c3.21-7.89,4.38-22.34,12.89-21.87c7.41,0.41,16.04-0.45,24.32,1.57
			c109.34,3.66,218.9,1.19,327.97-7.4C483.87,403.73,499.62,403.93,506.47,415.02z"/>
	</g>
	<g>
		<path class="st4" d="M142.91,412.16c109.34,3.66,218.9,1.19,327.97-7.4c12.99-1.03,28.74-0.83,35.59,10.26
			c4.29,6.95,3.3,15.82,1.94,23.87c-4.74,27.91-12.32,55.34-22.59,81.72c-2.54,6.53-5.39,13.2-10.45,18.05
			c-5.64,5.4-13.42,7.95-21.09,9.37c-14.05,2.6-28.47,1.99-42.73,1.18c-25.72-1.47-51.35-7.08-77.07-5.63
			c-62.02,3.47-131.44,4.45-192.48-7.58c-21.27-4.19-41.13,2.89-39.36-45.45c0.74-20.09-4.5-39.47,3.06-58.09
			c3.21-7.89,4.38-22.34,12.89-21.87C126,411,134.63,410.14,142.91,412.16z"/>
	</g>
</g>
<text transform="matrix(1 0 0 1 153.9365 489.7764)" class="st5 st6 st7">ICE CREAM MARKET</text>
<g>
	<g>
		<path d="M168.01,414.71c31.51-1.51,63.06-2.11,94.6-1.8c8.8,0.09,17.6,0.25,26.39,0.48c3.22,0.08,3.22-4.92,0-5
			c-31.53-0.82-63.09-0.73-94.62,0.27c-8.79,0.28-17.59,0.63-26.38,1.05C164.81,409.86,164.79,414.86,168.01,414.71L168.01,414.71z"
			/>
	</g>
</g>
<g id="XMLID_00000119111484690933659380000003554356490502894214_">
	<g>
	</g>
	<g>
		<path class="st4" d="M311.01,412.24c36.32-1.09,72.66-1.51,108.99-1.25"/>
	</g>
</g>
</svg>
